# xmcd CD database file
#
# Track frame offsets:
#	150
#	14910
#	33335
#	52885
#	70037
#	88042
#	105512
#	123447
#	141410
#	157445
#	172720
#
# Disc length: 2539 seconds
#
# Revision: 3
# Processed by: cddbd v1.4PL0 Copyright (c) Steve Scherf et al.
# Submitted via: CDex 1.51
#
DISCID=9309e90b
DTITLE=BlackHawk - Love and Gravity
DYEAR=1997
DGENRE=Country
TTITLE0=Love and Gravity
TTITLE1=Stepping Stones
TTITLE2=Postmarked Birmingham
TTITLE3=Will You Be There (In the Morning)
TTITLE4=It Ain't About Love Anymore
TTITLE5=Nobody's Fool
TTITLE6=If That Was A Lie
TTITLE7=Hole in My Heart
TTITLE8=Hold Me Harmless
TTITLE9=She Dances With Her Shadow
TTITLE10=Lonely Boy
EXTD=YEAR: 1997
EXTT0=
EXTT1=
EXTT2=
EXTT3=
EXTT4=
EXTT5=
EXTT6=
EXTT7=
EXTT8=
EXTT9=
EXTT10=
PLAYORDER=
